<svg xmlns="http://www.w3.org/2000/svg" version="1.1" xmlns:xlink="http://www.w3.org/1999/xlink" xmlns:svgjs="http://svgjs.dev/svgjs" width="1440" height="2560" preserveAspectRatio="none" viewBox="0 0 1440 2560"><g mask="url(&quot;#SvgjsMask1071&quot;)" fill="none"><rect width="1440" height="2560" x="0" y="0" fill="rgba(61, 60, 63, 1)"></rect><path d="M0,968.26C231.956,1006.841,495.336,1204.749,684.354,1064.876C877.563,921.902,722.115,593.569,809.122,369.513C888.282,165.663,1197.062,48.794,1162.795,-167.185C1128.382,-384.083,828.777,-431.453,659.789,-571.71C524.07,-684.355,418.488,-819.545,267.321,-910.413C72.644,-1027.436,-123.515,-1225.064,-345.264,-1175.861C-565.333,-1127.031,-674.202,-875.575,-781.979,-677.588C-873.379,-509.686,-863.175,-315.722,-913.84,-131.39C-973.868,87.008,-1184.876,292.881,-1107.198,505.641C-1030.413,715.953,-758.759,772.887,-552.176,859.203C-375.486,933.029,-188.898,936.84,0,968.26" fill="#313032"></path><path d="M1440 3337.601C1595.478 3322.44 1748.665 3324.212 1893.4769999999999 3265.624 2062.725 3197.15 2239.129 3122.567 2342.8630000000003 2972.324 2454.9790000000003 2809.94 2537.257 2599.948 2484.34 2409.847 2432.117 2222.24 2225.268 2133.616 2074.938 2009.8229999999999 1950.027 1906.962 1822.559 1820.92 1678.851 1746.547 1501.473 1654.749 1328.799 1472.623 1135.732 1523.759 943.428 1574.693 908.293 1836.0520000000001 776.919 1985.437 644.188 2136.365 410.328 2210.034 360.876 2404.845 310.98 2601.406 421.744 2803.327 524.995 2977.869 620.929 3140.043 750.527 3291.035 925.886 3359.977 1088.826 3424.036 1265.747 3354.593 1440 3337.601" fill="#49484c"></path></g><defs><mask id="SvgjsMask1071"><rect width="1440" height="2560" fill="#ffffff"></rect></mask></defs></svg>