<svg xmlns="http://www.w3.org/2000/svg" version="1.1" xmlns:xlink="http://www.w3.org/1999/xlink" xmlns:svgjs="http://svgjs.dev/svgjs" width="1440" height="2560" preserveAspectRatio="none" viewBox="0 0 1440 2560"><g mask="url(&quot;#SvgjsMask1056&quot;)" fill="none"><rect width="1440" height="2560" x="0" y="0" fill="rgba(218, 211, 220, 1)"></rect><path d="M0,1253.259C229.936,1221.934,374.146,995.062,527.631,821.01C646.795,685.879,699.456,516.79,787.875,359.81C886.47,184.764,1065.041,45.634,1077.309,-154.894C1090.331,-367.756,977.311,-566.2,855.223,-741.055C723.043,-930.364,575.752,-1142.569,350.943,-1195.201C127.843,-1247.433,-100.897,-1129.628,-296.786,-1010.761C-462.445,-910.239,-561.862,-740.659,-666.695,-577.694C-757.862,-435.973,-803.405,-280.754,-866.821,-124.63C-953.131,87.857,-1154.98,281.187,-1106.626,505.379C-1058.394,729.008,-818.429,850.467,-628.885,978.565C-435.437,1109.301,-231.345,1284.776,0,1253.259" fill="#937f99"></path><path d="M1440 3574.487C1628.745 3582.424 1805.454 3474.511 1948.191 3350.761 2079.506 3236.9139999999998 2156.726 3076.552 2206.423 2910.014 2251.364 2759.4139999999998 2242.368 2603.395 2217.523 2448.209 2193.025 2295.193 2157.0209999999997 2143.26 2063.842 2019.438 1966.577 1890.1860000000001 1836.036 1785.258 1681.842 1736.363 1525.849 1686.8980000000001 1357.552 1698.367 1200.933 1745.812 1045.204 1792.987 928.9359999999999 1906.931 798.345 2004.0030000000002 629.311 2129.651 375.73299999999995 2195.622 321.87799999999993 2399.238 268.65599999999995 2600.459 423.602 2799.14 542.93 2969.678 647.603 3119.2709999999997 807.17 3207.0789999999997 958.5550000000001 3309.143 1113.6309999999999 3413.696 1253.136 3566.629 1440 3574.487" fill="#ffffff"></path></g><defs><mask id="SvgjsMask1056"><rect width="1440" height="2560" fill="#ffffff"></rect></mask></defs></svg>